<svg id="Layer_1" data-name="Layer 1" xmlns="http://www.w3.org/2000/svg" viewBox="0 0 217.45 255.89"><defs><style>.cls-1{fill:#f2634b;}.cls-2{fill:#f89f7b;}</style></defs><path class="cls-1" d="M412.53,489c0,6.16-.08,12.33,0,18.49.09,5.35-2.12,9.34-6.75,11.89s-9.2,2-13.59-1c-27.9-18.62-55.87-37.13-83.67-55.88-3.61-2.44-5.87-2.31-9.47.13-27.24,18.42-54.71,36.5-82,54.81-4.75,3.19-9.49,4.89-14.86,2.08s-7.12-7.79-7-13.78c.2-11.32.22-22.65,0-34-.12-6.1,2.22-10.4,7.26-13.75q46.49-30.85,92.84-61.93c6-4.05,11.46-3.87,17.45.15q46.09,31,92.41,61.66c5.24,3.47,7.78,7.79,7.46,14.11C412.31,477.68,412.53,483.35,412.53,489Z" transform="translate(-195.18 -265.13)"/><path class="cls-2" d="M412.53,361.25c0,5.33-.19,10.67.06,16,.28,6.12-1.16,11.26-6.92,14.32-5.6,3-10.42,1-15.28-2.25-27.3-18.32-54.74-36.44-82-54.84-3.47-2.35-5.72-2.18-9.06.07-27.41,18.46-55,36.68-82.43,55.09-4.77,3.2-9.54,4.77-14.87,1.89s-7-7.55-6.86-13.37q.28-17.49,0-35c-.09-5.75,2.31-9.79,7-12.89q46.89-31.15,93.71-62.41c5.54-3.71,10.62-3.62,16.12.05q46.78,31.31,93.69,62.43c4.68,3.11,7.1,7.15,6.88,12.91C412.36,349.25,412.53,355.25,412.53,361.25Z" transform="translate(-195.18 -265.13)"/></svg>